<svg width="80" height="80" viewBox="0 0 80 80" fill="none" xmlns="http://www.w3.org/2000/svg">
<mask id="path-1-inside-1" fill="white">
<path fill-rule="evenodd" clip-rule="evenodd" d="M15.9999 20C13.7908 20 11.9999 21.7909 11.9999 24V58.9216C9.78048 58.7954 7.48426 58.6559 5.09588 58.5031C4.26914 58.4501 3.55604 59.0774 3.50312 59.9042C3.4502 60.7309 4.0775 61.444 4.90423 61.4969C32.671 63.2743 48.095 63.2499 75.0972 61.4968C75.9239 61.4432 76.5506 60.7295 76.4969 59.9028C76.4432 59.0761 75.7296 58.4495 74.9029 58.5032C72.5162 58.6581 70.2208 58.7995 67.9999 58.9272V24C67.9999 21.7909 66.2091 20 63.9999 20H15.9999Z"/>
</mask>
<path d="M11.9999 58.9216L11.8297 61.9168C12.6536 61.9636 13.4604 61.669 14.0602 61.1023C14.66 60.5356 14.9999 59.7468 14.9999 58.9216H11.9999ZM5.09588 58.5031L4.90423 61.4969H4.90423L5.09588 58.5031ZM3.50312 59.9042L0.509244 59.7125L3.50312 59.9042ZM4.90423 61.4969L4.71259 64.4908H4.71259L4.90423 61.4969ZM75.0972 61.4968L74.9029 58.5032L75.0972 61.4968ZM74.9029 58.5032L74.7085 55.5095L74.9029 58.5032ZM67.9999 58.9272H64.9999C64.9999 59.7528 65.3402 60.5419 65.9404 61.1086C66.5407 61.6754 67.348 61.9697 68.1722 61.9223L67.9999 58.9272ZM14.9999 24C14.9999 23.4477 15.4477 23 15.9999 23V17C12.134 17 8.99995 20.134 8.99995 24H14.9999ZM14.9999 58.9216V24H8.99995V58.9216H14.9999ZM4.90423 61.4969C7.29882 61.6502 9.60222 61.7901 11.8297 61.9168L12.1702 55.9264C9.95873 55.8007 7.66971 55.6617 5.28752 55.5092L4.90423 61.4969ZM6.49699 60.0958C6.44407 60.9226 5.73097 61.5499 4.90423 61.4969L5.28752 55.5092C2.80731 55.3504 0.668007 57.2323 0.509244 59.7125L6.49699 60.0958ZM5.09588 58.5031C5.92261 58.556 6.54991 59.2691 6.49699 60.0958L0.509244 59.7125C0.350482 62.1927 2.23238 64.332 4.71259 64.4908L5.09588 58.5031ZM74.9029 58.5032C48.0299 60.2478 32.7348 60.2723 5.09587 58.5031L4.71259 64.4908C32.6072 66.2764 48.1602 66.252 75.2916 64.4905L74.9029 58.5032ZM73.5032 60.0972C73.4495 59.2705 74.0762 58.5568 74.9029 58.5032L75.2916 64.4905C77.7716 64.3295 79.6516 62.1885 79.4906 59.7085L73.5032 60.0972ZM75.0972 61.4968C74.2705 61.5505 73.5569 60.9239 73.5032 60.0972L79.4906 59.7085C79.3296 57.2284 77.1886 55.3484 74.7085 55.5095L75.0972 61.4968ZM68.1722 61.9223C70.4014 61.794 72.7042 61.6522 75.0972 61.4968L74.7085 55.5095C72.3281 55.664 70.0402 55.8049 67.8276 55.9322L68.1722 61.9223ZM64.9999 24V58.9272H70.9999V24H64.9999ZM63.9999 23C64.5522 23 64.9999 23.4477 64.9999 24H70.9999C70.9999 20.134 67.8659 17 63.9999 17V23ZM15.9999 23H63.9999V17H15.9999V23Z" fill="#B2E4B7" mask="url(#path-1-inside-1)"/>
<path fill-rule="evenodd" clip-rule="evenodd" d="M20 50.5C20 49.6716 20.6716 49 21.5 49H50.5C51.3284 49 52 49.6716 52 50.5C52 51.3284 51.3284 52 50.5 52H21.5C20.6716 52 20 51.3284 20 50.5ZM55 50.5C55 49.6716 55.6716 49 56.5 49H59.5C60.3284 49 61 49.6716 61 50.5C61 51.3284 60.3284 52 59.5 52H56.5C55.6716 52 55 51.3284 55 50.5ZM21.5 54C20.6716 54 20 54.6716 20 55.5C20 56.3284 20.6716 57 21.5 57H28.5C29.3284 57 30 56.3284 30 55.5C30 54.6716 29.3284 54 28.5 54H21.5ZM33 55.5C33 54.6716 33.6716 54 34.5 54H47.5C48.3284 54 49 54.6716 49 55.5C49 56.3284 48.3284 57 47.5 57H34.5C33.6716 57 33 56.3284 33 55.5ZM53.5 54C52.6716 54 52 54.6716 52 55.5C52 56.3284 52.6716 57 53.5 57H59.5C60.3284 57 61 56.3284 61 55.5C61 54.6716 60.3284 54 59.5 54H53.5Z" fill="#B2E4B7"/>
<path d="M35 36.6786L39.6667 41L46 30" stroke="#B2E4B7" stroke-width="3" stroke-linecap="round" stroke-linejoin="round"/>
</svg>
