<svg width="80" height="80" viewBox="0 0 80 80" fill="none" xmlns="http://www.w3.org/2000/svg">
<path d="M56.2183 37.1219L40.9485 36.6985L42.4086 20.9711C42.4436 20.5684 42.3424 20.1655 42.1209 19.8264C41.8995 19.4873 41.5705 19.2315 41.1862 19.0995C40.8019 18.9675 40.3842 18.9668 39.9995 19.0977C39.6148 19.2286 39.285 19.4834 39.0626 19.8218L20.3252 47.4656C20.1284 47.7478 20.0163 48.0796 20.0016 48.4226C19.987 48.7656 20.0705 49.1057 20.2425 49.4034C20.4145 49.7011 20.6679 49.9442 20.9733 50.1044C21.2787 50.2647 21.6235 50.3355 21.9677 50.3086L36.4466 49.4013L34.7432 67.0038C34.707 67.4064 34.807 67.8096 35.0275 68.1493C35.2479 68.489 35.5761 68.7458 35.96 68.8789L36.5683 68.9999C36.8672 69.0027 37.1622 68.9325 37.4274 68.7953C37.6926 68.6582 37.9198 68.4584 38.0892 68.2136L57.6783 39.9649C57.8648 39.6955 57.9746 39.3809 57.9961 39.0545C58.0176 38.7282 57.9499 38.4021 57.8003 38.1108C57.6507 37.8195 57.4247 37.5738 57.1463 37.3997C56.8678 37.2257 56.5471 37.1297 56.2183 37.1219ZM39.0017 60.4104L40.2185 47.6471C40.2441 47.394 40.2158 47.1383 40.1356 46.8968C40.0555 46.6552 39.9251 46.4331 39.753 46.2449C39.5809 46.0567 39.3709 45.9065 39.1367 45.8042C38.9025 45.7019 38.6492 45.6496 38.3934 45.6509H38.2717L25.3745 46.4373L38.15 27.625L37.1767 38.2107C37.1515 38.4588 37.178 38.7094 37.2546 38.9468C37.3311 39.1843 37.4561 39.4035 37.6216 39.5908C37.7871 39.7781 37.9897 39.9295 38.2167 40.0355C38.4437 40.1415 38.6902 40.1998 38.9409 40.2069L52.7506 40.6303L39.0017 60.4104Z" fill="#B2E4B7"/>
</svg>
