<?xml version="1.0" standalone="no"?>
<!DOCTYPE svg PUBLIC "-//W3C//DTD SVG 20010904//EN"
 "http://www.w3.org/TR/2001/REC-SVG-20010904/DTD/svg10.dtd">
<svg version="1.0" xmlns="http://www.w3.org/2000/svg"
 width="1000.000000pt" height="1000.000000pt" viewBox="0 0 1000.000000 1000.000000"
 preserveAspectRatio="xMidYMid meet">
<metadata>
Created by potrace 1.11, written by Peter Selinger 2001-2013
</metadata>
<g transform="translate(0.000000,1000.000000) scale(0.100000,-0.100000)"
fill="#000000" stroke="none">
<path d="M4809 9496 c-2 -2 -41 -7 -85 -10 -45 -4 -93 -9 -105 -11 -13 -2 -60
-6 -104 -10 -44 -4 -89 -9 -100 -10 -11 -2 -49 -6 -85 -10 -77 -7 -137 -12
-205 -19 -88 -9 -258 -26 -305 -31 -25 -2 -74 -7 -110 -10 -36 -4 -76 -8 -90
-10 -14 -2 -54 -6 -90 -10 -109 -10 -263 -25 -300 -30 -19 -2 -64 -7 -100 -10
-36 -3 -81 -8 -100 -10 -19 -2 -64 -7 -100 -10 -36 -4 -76 -8 -90 -10 -14 -2
-63 -7 -110 -10 -47 -4 -92 -9 -100 -10 -8 -1 -53 -6 -100 -11 -47 -4 -87 -8
-90 -9 -3 -1 -45 -5 -95 -9 -49 -5 -97 -9 -105 -11 -8 -1 -51 -6 -95 -9 -44
-4 -91 -9 -105 -11 -14 -2 -56 -7 -95 -10 -38 -3 -86 -8 -105 -10 -19 -2 -82
-9 -140 -15 -58 -6 -123 -12 -145 -15 -22 -2 -71 -7 -110 -10 -38 -3 -86 -8
-105 -10 -19 -2 -62 -7 -95 -10 -33 -3 -103 -10 -155 -16 -131 -13 -163 -17
-340 -34 -203 -20 -248 -25 -290 -30 -19 -3 -66 -7 -105 -11 -240 -20 -330
-33 -343 -51 -13 -17 -12 -180 3 -518 2 -49 6 -178 10 -285 3 -107 8 -235 10
-285 3 -49 7 -175 10 -280 3 -104 7 -235 10 -290 2 -55 7 -181 10 -280 3 -99
8 -229 10 -290 3 -60 7 -191 10 -290 3 -99 8 -227 10 -285 2 -58 7 -193 10
-300 3 -107 8 -231 10 -275 3 -44 7 -168 10 -275 3 -107 7 -235 10 -285 2 -49
7 -180 10 -290 3 -110 8 -238 10 -285 2 -47 7 -177 10 -290 3 -113 8 -241 10
-285 l5 -80 67 -64 c38 -35 144 -136 237 -225 93 -89 186 -177 206 -196 161
-152 311 -294 578 -549 100 -95 190 -181 201 -190 11 -9 100 -94 198 -188 98
-94 194 -185 213 -203 19 -18 109 -103 200 -190 91 -86 177 -168 191 -181 15
-13 100 -94 190 -180 90 -86 180 -171 199 -189 19 -18 115 -109 213 -203 99
-94 187 -179 198 -187 16 -15 182 -173 478 -455 52 -49 106 -101 121 -115 14
-14 100 -95 191 -181 245 -234 262 -249 285 -249 12 0 73 24 135 54 63 29 206
97 319 149 113 52 250 116 305 142 55 26 134 63 175 82 41 20 131 61 200 93
69 32 170 79 225 105 55 26 127 60 160 75 96 44 213 99 310 145 50 23 113 53
140 65 28 13 106 49 174 81 68 33 125 59 126 59 1 0 58 26 126 59 68 32 149
70 179 83 101 47 634 295 745 348 61 28 157 74 215 100 58 26 155 72 215 100
61 29 137 65 170 80 88 41 209 97 304 142 46 22 111 52 145 67 33 16 106 50
161 76 55 25 114 53 130 60 307 141 1156 540 1174 551 l23 16 -6 216 c-4 120
-9 255 -11 302 -3 47 -7 168 -10 270 -3 102 -8 235 -10 295 -2 61 -7 182 -10
270 -3 88 -8 219 -10 290 -3 72 -7 207 -10 300 -3 94 -7 220 -10 280 -2 61 -7
187 -10 280 -3 94 -7 220 -10 280 -2 61 -7 196 -10 300 -3 105 -8 231 -10 280
-2 50 -7 176 -10 280 -3 105 -7 235 -10 290 -3 55 -7 186 -10 290 -3 105 -8
231 -10 280 -2 50 -7 171 -10 270 -3 99 -7 234 -10 300 -3 66 -7 194 -10 285
-3 91 -8 224 -11 296 -6 147 -12 316 -13 387 -1 68 -20 82 -117 91 -43 3 -90
8 -104 11 -14 2 -90 11 -170 20 -80 9 -161 18 -180 20 -19 2 -60 7 -90 10 -30
3 -71 8 -90 10 -19 3 -57 7 -85 10 -27 4 -63 8 -80 10 -16 2 -57 6 -90 10 -33
3 -76 8 -95 10 -54 7 -210 25 -260 30 -25 3 -61 7 -80 10 -37 5 -41 5 -265 30
-156 17 -214 23 -265 30 -63 8 -204 24 -265 30 -33 3 -91 10 -130 15 -38 5
-155 19 -260 30 -104 11 -206 23 -225 25 -19 3 -78 9 -130 15 -52 6 -115 13
-140 16 -25 2 -61 7 -80 9 -35 5 -162 19 -255 30 -27 3 -149 17 -270 30 -121
14 -242 27 -270 30 -27 3 -104 12 -170 20 -66 8 -163 19 -215 25 -53 5 -111
12 -130 14 -33 5 -177 22 -265 31 -96 10 -142 16 -171 20 -17 3 -32 3 -35 1z"/>
</g>
</svg>
