<svg width="36" height="36" viewBox="0 0 36 36" fill="none" xmlns="http://www.w3.org/2000/svg">
<path d="M27.2581 11.8853H8.99579C8.58955 11.8853 8.26025 12.2145 8.26025 12.6208V27.9351C8.26025 28.3414 8.58955 28.6707 8.99579 28.6707H12.2515V33.8317C12.2515 35.0291 13.2222 35.9999 14.4198 35.9999C15.6172 35.9999 16.588 35.0292 16.588 33.8317V28.6707H19.6207V33.8317C19.6207 35.0291 20.5914 35.9999 21.789 35.9999C22.9864 35.9999 23.9572 35.0292 23.9572 33.8317V28.6707H27.2582C27.6644 28.6707 27.9937 28.3414 27.9937 27.9351V12.6208C27.9936 12.2145 27.6644 11.8853 27.2581 11.8853Z" fill="#AAC148"/>
<path d="M5.16826 11.8818C3.97081 11.8818 3 12.8525 3 14.0501V22.8566C3 24.0541 3.97072 25.0249 5.16826 25.0249C6.36571 25.0249 7.33652 24.0542 7.33652 22.8566V14.0501C7.33643 12.8526 6.36571 11.8818 5.16826 11.8818Z" fill="#AAC148"/>
<path d="M31.0857 11.8818C29.8883 11.8818 28.9175 12.8525 28.9175 14.0501V22.8566C28.9175 24.0541 29.8882 25.0249 31.0857 25.0249C32.2832 25.0249 33.254 24.0542 33.254 22.8566V14.0501C33.254 12.8526 32.2833 11.8818 31.0857 11.8818Z" fill="#AAC148"/>
<path d="M9.14352 10.8111H27.0671C27.5347 10.8111 27.8835 10.3804 27.7874 9.92275C27.1945 7.09704 25.3955 4.71574 22.9543 3.3401L24.4865 0.575481C24.5902 0.388309 24.5226 0.152427 24.3355 0.048733C24.1478 -0.0552224 23.9123 0.0126579 23.8086 0.19983L22.2648 2.98528C21.0003 2.39849 19.5911 2.07076 18.1053 2.07076C16.6195 2.07076 15.2103 2.39849 13.9458 2.98528L12.402 0.199743C12.2982 0.0124837 12.0623 -0.0550481 11.8752 0.0486458C11.688 0.15234 11.6204 0.388222 11.7241 0.575394L13.2564 3.34001C10.8152 4.71574 9.01613 7.09696 8.42324 9.92275C8.32713 10.3804 8.67585 10.8111 9.14352 10.8111ZM23.4535 6.69098C23.4535 7.15125 23.0804 7.52446 22.62 7.52446C22.1598 7.52446 21.7866 7.15133 21.7866 6.69098C21.7866 6.23072 22.1597 5.85751 22.62 5.85751C23.0804 5.85751 23.4535 6.23072 23.4535 6.69098ZM13.5904 5.85751C14.0507 5.85751 14.4239 6.23063 14.4239 6.69098C14.4239 7.15125 14.0508 7.52446 13.5904 7.52446C13.1302 7.52446 12.757 7.15133 12.757 6.69098C12.757 6.23072 13.1301 5.85751 13.5904 5.85751Z" fill="#AAC148"/>
</svg>
