<svg width="36" height="36" viewBox="0 0 36 36" fill="none" xmlns="http://www.w3.org/2000/svg">
<path d="M36 18C36 27.9396 27.9396 36 18 36C8.0604 36 0 27.9396 0 18C0 8.0604 8.0604 0 18 0C27.9396 0 36 8.0604 36 18Z" fill="#4CAF50"/>
<path d="M17.9999 0V18L25.1999 21.6L17.2412 36C17.5265 36 17.7146 36 17.9999 36C27.9476 36 35.9999 27.9477 35.9999 18C35.9999 8.0523 27.9476 0 17.9999 0Z" fill="#FFC107"/>
<path d="M36 18C36 27.9396 27.9396 36 18 36C8.0604 36 0 27.9396 0 18C0 8.0604 8.0604 0 18 0C27.9396 0 36 8.0604 36 18Z" fill="#4CAF50"/>
<path d="M17.9999 0V18L25.1999 21.6L17.2412 36C17.5265 36 17.7146 36 17.9999 36C27.9476 36 35.9999 27.9477 35.9999 18C35.9999 8.0523 27.9476 0 17.9999 0Z" fill="#FFC107"/>
<path d="M34.0562 9.9H18.0002V21.6L15.3002 20.7L2.84417 8.334H2.82617C6.01217 3.321 11.6192 0 18.0002 0C25.0202 0 31.0952 4.032 34.0562 9.9Z" fill="#F44336"/>
<path d="M2.84204 8.33752L10.8007 21.7133L15.2998 20.6999L2.84204 8.33752Z" fill="#DD2C00"/>
<path d="M17.2412 36L25.2818 21.5469L21.5999 18.9L17.2412 36Z" fill="#558B2F"/>
<path d="M34.0787 9.90002H18.0002L16.5791 14.022L34.0787 9.90002Z" fill="#F9A825"/>
<path d="M26.1001 18C26.1001 22.4721 22.4722 26.1 18.0001 26.1C13.528 26.1 9.90015 22.4721 9.90015 18C9.90015 13.5279 13.528 9.90002 18.0001 9.90002C22.4722 9.90002 26.1001 13.5279 26.1001 18Z" fill="white"/>
<path d="M24.3002 18C24.3002 21.4803 21.4805 24.3 18.0002 24.3C14.5199 24.3 11.7002 21.4803 11.7002 18C11.7002 14.5197 14.5199 11.7 18.0002 11.7C21.4805 11.7 24.3002 14.5197 24.3002 18Z" fill="#2196F3"/>
</svg>
