<svg width="36" height="36" viewBox="0 0 36 36" fill="none" xmlns="http://www.w3.org/2000/svg">
<path d="M11.6814 21.375C11.6814 22.2412 11.8118 23.0288 12.0783 23.7375C12.3618 24.435 12.7303 25.0594 13.2008 25.605C13.6714 26.1506 14.2213 26.6175 14.8677 27.0113C15.4913 27.405 16.1716 27.7313 16.8973 27.9844C17.6173 28.2431 18.3713 28.4344 19.1367 28.5581C19.9134 28.6819 20.6675 28.7437 21.4328 28.7437C22.3966 28.7437 23.2924 28.6706 24.1428 28.5188C24.9932 28.3613 25.821 28.1531 26.6373 27.8888C27.4537 27.6244 28.2418 27.3094 29.0298 26.9494C29.8236 26.5894 30.6286 26.1956 31.4563 25.7569V33.3844C30.5322 33.8344 29.6251 34.2113 28.718 34.5375C27.8109 34.8525 26.9038 35.1281 25.9797 35.3475C25.0556 35.5725 24.1201 35.7413 23.162 35.8425C22.2039 35.9438 21.2231 36 20.2026 36C18.8419 36 17.5266 35.8425 16.2623 35.5331C14.998 35.2237 13.8131 34.7794 12.7019 34.1944C11.5907 33.6094 10.5759 32.9006 9.65179 32.0681C8.72201 31.2356 7.93396 30.2962 7.27064 29.2556C6.60732 28.215 6.09707 27.0731 5.72856 25.8469C5.37139 24.6206 5.18997 23.3156 5.18997 21.9319C5.18997 20.4525 5.39407 19.0462 5.80226 17.7019C6.21613 16.3519 6.80008 15.1256 7.57112 14.0006C8.33649 12.8756 9.27194 11.8744 10.3775 11.0025C11.483 10.1306 12.7246 9.41625 14.1079 8.865C13.3539 9.61313 12.7643 10.4962 12.3504 11.5256C11.9252 12.5494 11.6588 13.5787 11.5397 14.6081H24.4546C24.4546 13.3144 24.3242 12.1894 24.0578 11.2219C23.7913 10.2544 23.3661 9.45 22.7708 8.81438C22.1812 8.17313 21.4215 7.68937 20.486 7.37437C19.5506 7.05375 18.4224 6.89062 17.1014 6.89062C15.5423 6.89062 13.9832 7.11562 12.4241 7.5825C10.865 8.0325 9.38533 8.67937 7.97932 9.495C6.5733 10.3219 5.28068 11.295 4.10144 12.4087C2.9222 13.5337 1.93006 14.7431 1.125 16.0538C1.29508 14.535 1.63525 13.0725 2.10581 11.6831C2.57637 10.2938 3.2 9 3.94837 7.80187C4.69673 6.62062 5.57549 5.54063 6.57897 4.57313C7.58246 3.60563 8.69366 2.77313 9.92392 2.09813C11.1542 1.42312 12.4582 0.8775 13.8755 0.511875C15.2929 0.19125 16.8009 0 18.3884 0C19.3181 0 20.2423 0.084375 21.1664 0.2475C22.0905 0.41625 22.9919 0.64125 23.8707 0.93375C25.6169 1.53 27.1759 2.3625 28.5479 3.42C29.9199 4.48875 31.0708 5.70375 32.0063 7.09312C32.9417 8.4825 33.6504 10.0181 34.138 11.6888C34.6255 13.3594 34.875 15.0975 34.875 16.9031V21.375H11.6814V21.375Z" fill="#0078D7"/>
</svg>
