<svg width="36" height="36" viewBox="0 0 36 36" fill="none" xmlns="http://www.w3.org/2000/svg">
<path d="M29.0867 3.34973C28.1825 4.36988 27.7613 6.66579 28.6782 8.99324C29.5951 11.3207 31.0005 10.8152 31.8766 13.1886C33.0329 16.3203 32.4947 20.5272 32.4947 20.5272C32.4947 20.5272 33.8848 24.4275 34.8535 20.2845C36.9977 12.5027 29.0867 5.26604 29.0867 3.34973Z" fill="url(#paint0_radial)"/>
<path d="M18.0527 35.6575C27.313 35.6575 34.8148 28.35 34.8148 19.3394C34.8148 10.3288 27.313 3.02136 18.0617 3.02136C8.81029 3.02136 1.30863 10.3289 1.30863 19.3394C1.29069 28.3587 8.80127 35.6575 18.0527 35.6575Z" fill="url(#paint1_radial)"/>
<path d="M30.6119 29.4014C30.2495 29.6491 29.8694 29.8714 29.4744 30.0667C29.9977 29.3238 30.4804 28.555 30.9206 27.7632C31.2779 27.3802 31.6051 27.0078 31.8718 26.6052C32.0015 26.4073 32.1479 26.1632 32.3028 25.8801C33.2439 24.2374 34.2815 21.579 34.3109 18.8484V18.8418C34.3116 18.7746 34.312 18.7073 34.3115 18.64C34.3163 17.9546 34.244 17.2707 34.0958 16.6005C34.1033 16.6528 34.11 16.7051 34.1168 16.7574C34.1084 16.7172 34.1014 16.6765 34.0924 16.6362C34.1063 16.7106 34.1174 16.7825 34.1293 16.8551C34.3217 18.4362 34.1847 19.9785 33.4994 21.1155C33.4886 21.1321 33.4775 21.1476 33.4666 21.1639C33.8219 19.4358 33.9408 17.5278 33.5454 15.6175C33.5454 15.6175 33.3873 14.6889 32.2096 11.8697C31.5317 10.247 30.3278 8.91666 29.2642 7.94747C28.3319 6.82994 27.4851 6.07998 27.0184 5.60382C26.0434 4.6091 25.6347 3.86349 25.4669 3.37698C25.3214 3.30629 23.4605 1.55477 23.3126 1.48804C22.5004 2.70823 19.9458 6.52493 21.161 10.0909C21.7117 11.707 23.1044 13.3842 24.562 14.3252C24.626 14.396 25.4293 15.2414 25.8114 17.148C26.2058 19.1178 25.9984 20.6549 25.1866 22.9279C24.2317 24.9219 21.7855 26.8933 19.4951 27.0949C14.5984 27.5259 12.8058 24.7129 12.8058 24.7129C14.5555 25.3907 16.49 25.2489 17.6665 24.5463C18.8522 23.8356 19.5694 23.3087 20.1516 23.5164C20.7255 23.7233 21.1824 23.1229 20.7724 22.5006C20.4558 22.0281 20.0027 21.6562 19.4696 21.4313C18.9365 21.2064 18.3469 21.1384 17.7742 21.2357C16.5873 21.4226 15.5 22.3336 13.9448 21.4513C13.8441 21.3948 13.7467 21.3329 13.6529 21.2662C13.5504 21.2008 13.9862 21.3656 13.8845 21.2913C13.5819 21.132 13.0462 20.7849 12.9073 20.6614C12.8841 20.6409 13.1421 20.7412 13.119 20.7206C11.6648 19.5604 11.8464 18.7766 11.8921 18.2851C11.9287 17.8918 12.1928 17.3879 12.6379 17.1835C12.8529 17.2972 12.9868 17.3839 12.9868 17.3839C12.9868 17.3839 12.8951 17.2024 12.8456 17.1068C12.8629 17.0994 12.8795 17.1014 12.8968 17.0943C13.073 17.1766 13.4624 17.3906 13.6674 17.5211C13.9345 17.7036 14.0196 17.8663 14.0196 17.8663C14.0196 17.8663 14.0899 17.8288 14.0379 17.6697C14.019 17.6044 13.938 17.397 13.6734 17.1877L13.69 17.1895C13.8483 17.2769 13.9983 17.3778 14.1381 17.491C14.2127 17.2283 14.3468 16.9539 14.3173 16.4632C14.2993 16.1182 14.3076 16.0289 14.2448 15.8956C14.1886 15.7812 14.2763 15.7365 14.3739 15.8554C14.3572 15.7623 14.3292 15.6714 14.2905 15.5846L14.2914 15.5757C14.4131 15.1646 16.8685 14.0954 17.0472 13.9704C17.3408 13.7691 17.5871 13.5098 17.7696 13.2095C17.9062 12.9986 18.0089 12.7028 18.034 12.2542C18.0474 11.9306 17.892 11.7151 15.4093 11.4633C14.7303 11.3985 14.3319 10.9218 14.1056 10.4819C14.0643 10.3872 14.0222 10.3013 13.98 10.2155C13.9398 10.1152 13.9075 10.0121 13.8834 9.90706C14.2893 8.77756 14.9713 7.82254 15.9741 7.10096C16.0288 7.05274 15.7558 7.11333 15.8104 7.06511C15.8741 7.00884 16.2902 6.84644 16.3688 6.80985C16.4648 6.76595 15.9579 6.55741 15.5104 6.60819C15.0547 6.65795 14.9579 6.71063 14.7147 6.81055C14.8156 6.71319 15.1366 6.58558 15.0613 6.58643C14.57 6.65941 13.9595 6.93611 13.4376 7.2495C13.4366 7.19493 13.4473 7.14075 13.4691 7.09043C13.2259 7.19038 12.6286 7.59486 12.4547 7.93708C12.4622 7.87149 12.4655 7.80551 12.4647 7.73952C12.2794 7.88924 12.1123 8.05884 11.9665 8.24506L11.9574 8.25307C10.5467 7.70246 9.30529 7.66683 8.25478 7.91371C8.02496 7.6901 7.9127 7.85356 7.38979 6.74045C7.35425 6.67343 7.41705 6.80663 7.38979 6.74045C7.30377 6.5246 7.44224 7.02845 7.38979 6.74045C6.51056 7.4126 5.35372 8.17434 4.7984 8.71204C4.79153 8.73347 5.44623 8.53277 4.7984 8.71204C4.57154 8.77482 4.58694 8.90524 4.55247 10.084C4.54416 10.1734 4.55152 10.2735 4.54405 10.3539C4.10043 10.9015 3.7983 11.3652 3.68404 11.6055C3.11034 12.5633 2.47848 14.0565 1.866 16.4184C2.13616 15.7782 2.46187 15.1613 2.83963 14.5744C2.33031 15.8281 1.83794 17.7968 1.7395 20.8285C1.86271 20.2029 2.02069 19.5842 2.21276 18.9751C2.09252 21.4903 2.5402 24.0007 3.52458 26.331C3.87685 27.1659 4.45954 28.433 5.45148 29.8212C8.568 32.9983 12.9638 34.9761 17.8315 34.9761C22.913 34.9762 27.4762 32.822 30.6119 29.4014Z" fill="url(#paint2_linear)"/>
<path d="M26.8516 31.7089C33.0017 31.0189 35.7243 24.8784 32.228 24.7577C29.07 24.6599 23.9385 32.0345 26.8516 31.7089Z" fill="url(#paint3_radial)"/>
<path d="M32.671 23.5033C36.9023 21.1174 35.799 15.9637 35.799 15.9637C35.799 15.9637 34.166 17.8017 33.0567 20.7315C31.9608 23.6327 30.127 24.9443 32.671 23.5033Z" fill="url(#paint4_radial)"/>
<path d="M19.2385 34.7582C25.1378 36.5821 30.2081 32.0795 27.0827 30.5758C24.2412 29.2197 16.4386 33.8959 19.2385 34.7582Z" fill="url(#paint5_radial)"/>
<path d="M33.1107 25.6915C33.2541 25.4953 33.4482 24.867 33.6197 24.5862C34.6612 22.9573 34.6686 21.6585 34.6686 21.6288C35.2976 18.5842 35.2406 17.341 34.8536 15.0419C34.542 13.1906 33.1799 10.5385 32 9.26138C30.7841 7.94558 31.6407 8.37429 30.4634 7.41316C29.4315 6.30488 28.431 5.20739 27.8861 4.76602C23.9486 1.57662 24.0375 0.89917 24.1133 0.78367C24.1005 0.797244 24.0817 0.817402 24.0578 0.84378C24.0111 0.66367 23.9782 0.512207 23.9782 0.512207C23.9782 0.512207 21.8258 2.59757 21.3727 6.07318C21.0769 8.34224 21.9536 10.7077 23.223 12.2195C23.884 13.003 24.631 13.7145 25.4509 14.3415V14.3405C26.41 15.675 26.9379 17.3218 26.9379 19.0933C26.9379 23.529 23.2245 27.1249 18.6436 27.1249C18.0193 27.1252 17.397 27.0575 16.7883 26.923C14.627 26.5239 13.3789 25.4676 12.7565 24.7505C12.3998 24.3395 12.2481 24.0399 12.2481 24.0399C14.1846 24.712 16.3257 24.5714 17.6278 23.8746C18.9399 23.1698 19.7339 22.6473 20.3782 22.8533C21.0133 23.0584 21.519 22.4631 21.0654 21.8459C20.621 21.2296 19.4644 20.347 17.7471 20.5915C16.4334 20.7769 15.23 21.6803 13.5088 20.8054C13.3979 20.7496 13.2901 20.6883 13.1858 20.6217C13.0723 20.5569 13.5546 20.7203 13.4421 20.6467C13.1071 20.4887 12.5142 20.1444 12.3605 20.022C12.3348 20.0016 12.6204 20.1011 12.5946 20.0805C10.9852 18.93 11.1861 18.1528 11.2368 17.6653C11.2773 17.2753 11.5696 16.7755 12.0622 16.5728C12.3001 16.6855 12.4483 16.7716 12.4483 16.7716C12.4483 16.7716 12.3468 16.5916 12.2919 16.4967C12.3112 16.4896 12.3295 16.4914 12.3486 16.4843C12.5435 16.566 12.9745 16.7781 13.2015 16.9076C13.497 17.0886 13.5912 17.25 13.5912 17.25C13.5912 17.25 13.669 17.2128 13.6115 17.055C13.5904 16.9903 13.5009 16.7846 13.2081 16.577L13.2264 16.5788C13.4002 16.6646 13.5661 16.7646 13.7224 16.8778C13.8049 16.6173 13.9534 16.3452 13.9207 15.8586C13.9008 15.5164 13.91 15.4278 13.8405 15.2957C13.7783 15.1822 13.8754 15.1379 13.9833 15.2559C13.9647 15.1628 13.9336 15.0725 13.891 14.9872L13.892 14.9784C14.0268 14.5707 16.7443 13.5104 16.9421 13.3864C17.2608 13.1926 17.5333 12.9353 17.7416 12.6317C17.8927 12.4226 18.0065 12.1292 18.0342 11.6843C18.0435 11.4838 17.9798 11.3251 17.2601 11.1734C16.8282 11.0823 16.1599 10.9936 15.1292 10.8999C14.3777 10.8357 13.9368 10.363 13.6862 9.92675C13.6405 9.83277 13.5939 9.74749 13.5473 9.66254C13.5029 9.56363 13.4672 9.46133 13.4404 9.35668C13.89 8.21617 14.6998 7.24229 15.7543 6.57389C15.8147 6.52604 15.5127 6.58615 15.5731 6.53833C15.6436 6.48254 16.1041 6.32149 16.1911 6.28519C16.2973 6.2418 15.7363 6.03495 15.2411 6.08522C14.7367 6.13457 14.6296 6.18678 14.3604 6.28593C14.4721 6.18938 14.8273 6.06276 14.7441 6.06367C14.2003 6.13604 13.5244 6.41046 12.9466 6.72122C12.9456 6.66673 12.9575 6.61274 12.9815 6.56346C12.7123 6.66257 12.0512 7.06373 11.8588 7.4031C11.867 7.33812 11.8707 7.27268 11.8699 7.20722C11.6671 7.35359 11.4822 7.52174 11.3185 7.70844L11.3085 7.71641C9.74716 7.17038 8.37323 7.13504 7.21057 7.37983C6.95621 7.15808 6.54726 6.82278 5.96853 5.71885C5.92922 5.65238 5.90812 5.85623 5.87791 5.7906C5.65304 5.28524 5.51718 4.45728 5.53949 3.88648C5.53949 3.88648 5.07435 4.09186 4.68938 4.94965C4.6179 5.10385 4.57206 5.18891 4.52625 5.27397C4.50518 5.29878 4.57402 4.99227 4.56303 5.00895C4.49612 5.11871 4.32302 5.27207 4.24694 5.47058C4.19467 5.61769 4.12138 5.70008 4.0746 5.88356L4.06361 5.90039C4.05983 5.84632 4.07747 5.67791 4.06463 5.71245C3.88418 6.06567 3.7289 6.43043 3.59986 6.80419C3.39259 7.46441 3.1513 8.3631 3.11305 9.53218C3.10384 9.62083 3.11203 9.72008 3.10372 9.79988C2.61283 10.3429 2.27834 10.8028 2.15188 11.0411C1.51724 11.9913 0.817902 13.4721 0.13998 15.8144C0.441595 15.1745 0.802269 14.5624 1.2176 13.9855C0.653869 15.2288 0.10894 17.1812 0 20.1878C0.136839 19.5656 0.311755 18.9518 0.52382 18.3498C0.426472 20.3546 0.6675 22.8403 1.97569 25.6446C2.75243 27.2942 4.54045 30.644 8.90936 33.258L8.90898 33.2583C8.90898 33.2583 10.3953 34.3302 12.95 35.1336C13.1388 35.2 13.3301 35.2653 13.5253 35.3287C13.464 35.3048 13.4048 35.2796 13.3472 35.2537C15.0477 35.7473 16.8133 35.9987 18.5885 36C25.2034 36.0055 27.1544 33.4317 27.1544 33.4317C27.1544 33.4317 27.1475 33.4367 27.135 33.4455C27.2284 33.3604 27.3183 33.2719 27.4047 33.18C26.3611 34.1349 23.9793 34.1983 23.0887 34.1294C24.6075 33.6972 25.607 33.3316 27.5511 32.6104C27.7786 32.5287 28.0112 32.4355 28.249 32.3309C28.2747 32.3199 28.3006 32.308 28.3265 32.2966C28.3736 32.2753 28.4203 32.2552 28.4679 32.2328C29.4151 31.8004 30.3058 31.2601 31.1211 30.6235C33.0733 29.1126 33.4981 27.6397 33.7201 26.6687C33.6892 26.7617 33.5927 26.9787 33.5249 27.1192C33.0221 28.1613 31.9072 28.8007 30.6963 29.349C31.2725 28.6166 31.8069 27.854 32.2969 27.0649C32.6922 26.685 32.8155 26.0908 33.1107 25.6915Z" fill="url(#paint6_radial)"/>
<path d="M30.7345 29.3042C31.5305 28.4539 32.2453 27.4814 32.7867 26.3786C34.1801 23.5402 36.3345 18.8207 34.6377 13.8918C33.2967 9.99603 31.4555 7.86585 29.1178 5.78495C25.3211 2.40571 24.2608 0.897109 24.2608 0C24.2608 0 19.8771 4.73447 21.7783 9.67247C23.6794 14.6105 27.5731 14.4294 30.1491 19.5825C33.1804 25.6463 27.6966 32.2635 23.1617 34.1156C23.4393 34.0558 33.2427 31.9065 33.7579 26.4736C33.7462 26.5735 33.5253 28.0761 30.7345 29.3042Z" fill="url(#paint7_radial)"/>
<path d="M18.0344 11.6844C18.0492 11.3635 17.8774 11.1481 15.1388 10.8992C14.012 10.7984 13.5806 9.78939 13.4491 9.36475C13.0484 10.3732 12.883 11.4315 12.9719 12.7115C13.0327 13.55 13.6142 14.45 13.8921 14.9785C13.8921 14.9785 13.9539 14.9007 13.9824 14.8719C14.5058 14.344 16.6988 13.5395 16.9048 13.4253C17.1319 13.2863 17.9962 12.6745 18.0344 11.6844Z" fill="url(#paint8_linear)"/>
<path d="M5.97854 5.72444C5.93923 5.65793 5.91812 5.86179 5.88791 5.79619C5.66305 5.29083 5.52624 4.4718 5.55864 3.89294C5.55864 3.89294 5.0935 4.09833 4.70853 4.95611C4.63704 5.11032 4.5912 5.19538 4.5454 5.28044C4.52433 5.30525 4.59317 4.99874 4.58218 5.01542C4.5153 5.12518 4.34221 5.27854 4.26703 5.46816C4.20468 5.62325 4.14056 5.70652 4.09283 5.89885C4.07815 5.95113 4.10764 5.66752 4.0948 5.70205C3.19945 7.37858 3.02854 9.91354 3.12291 9.80634C5.029 7.83439 7.21336 7.36672 7.21336 7.36672C6.98094 7.20085 6.47597 6.72191 5.97858 5.72444H5.97854Z" fill="url(#paint9_linear)"/>
<path d="M13.2103 26.3452C10.5774 25.256 7.58421 23.72 7.6972 20.2303C7.85107 15.6345 12.1207 16.5429 12.1207 16.5429C11.9596 16.5809 11.5288 16.8781 11.3761 17.1948C11.2148 17.5909 10.9204 18.4854 11.8123 19.4229C13.2128 20.8933 8.93492 22.9115 15.5379 26.7241C15.7044 26.8119 13.9901 26.6718 13.2104 26.3452H13.2103Z" fill="url(#paint10_linear)"/>
<path d="M12.2753 24.055C14.1422 24.6845 16.3172 24.5741 17.6193 23.8772C18.491 23.4071 19.6093 22.654 20.2974 22.8399C19.7016 22.6118 19.2504 22.5052 18.7076 22.4791C18.6152 22.4791 18.5044 22.4772 18.4037 22.4674C18.2049 22.4668 18.0063 22.4773 17.8087 22.499C17.4727 22.5289 17.1001 22.7343 16.7614 22.7014C16.7431 22.6996 17.09 22.5633 17.0618 22.5695C16.8823 22.6057 16.6874 22.6136 16.4814 22.6383C16.3504 22.6524 16.2378 22.6683 16.1079 22.6735C12.2192 22.993 8.93265 20.6316 8.93265 20.6316C8.65292 21.5444 10.185 23.3499 12.2753 24.055H12.2753Z" fill="url(#paint11_linear)"/>
<path d="M30.7276 29.3285C34.6609 25.5869 36.6509 21.0388 35.8096 15.9375C35.8096 15.9375 36.1457 18.5534 34.8713 21.2288C35.4835 18.6169 35.5548 15.371 33.9282 12.0097C31.7572 7.52324 28.1868 5.1625 26.8236 4.17762C24.7583 2.68534 23.9021 1.16595 23.8867 0.852417C23.2697 2.07718 21.4033 6.27437 23.6862 9.889C25.825 13.2755 29.1942 14.2807 31.5528 17.3871C35.8982 23.1097 30.7276 29.3285 30.7276 29.3285Z" fill="url(#paint12_linear)"/>
<path d="M30.1642 19.5934C28.7896 16.8422 27.074 15.6422 25.4511 14.3416C25.6399 14.5977 25.6864 14.6881 25.791 14.8537C27.2193 16.3287 29.3256 19.9265 27.7964 24.443C24.918 32.9445 13.4041 28.9412 12.197 27.8166C12.6853 32.737 21.1855 35.0914 26.7199 31.9007C29.8691 29.0123 32.4168 24.1021 30.1642 19.5934Z" fill="url(#paint13_linear)"/>
<defs>
<radialGradient id="paint0_radial" cx="0" cy="0" r="1" gradientUnits="userSpaceOnUse" gradientTransform="translate(34.2941 9.00725) rotate(2.47537) scale(12.9855 18.4944)">
<stop offset="0.045" stop-color="#FFEA00"/>
<stop offset="0.12" stop-color="#FFDE00"/>
<stop offset="0.254" stop-color="#FFBF00"/>
<stop offset="0.429" stop-color="#FF8E00"/>
<stop offset="0.769" stop-color="#FF272D"/>
<stop offset="0.872" stop-color="#E0255A"/>
<stop offset="0.953" stop-color="#CC2477"/>
<stop offset="1" stop-color="#C42482"/>
</radialGradient>
<radialGradient id="paint1_radial" cx="0" cy="0" r="1" gradientUnits="userSpaceOnUse" gradientTransform="translate(25.0402 7.06588) scale(36.6 35.4606)">
<stop stop-color="#00CCDA"/>
<stop offset="0.22" stop-color="#0083FF"/>
<stop offset="0.261" stop-color="#007AF9"/>
<stop offset="0.33" stop-color="#0060E8"/>
<stop offset="0.333" stop-color="#005FE7"/>
<stop offset="0.438" stop-color="#2639AD"/>
<stop offset="0.522" stop-color="#401E84"/>
<stop offset="0.566" stop-color="#4A1475"/>
</radialGradient>
<linearGradient id="paint2_linear" x1="20.4162" y1="26.6777" x2="13.5947" y2="3.64628" gradientUnits="userSpaceOnUse">
<stop stop-color="#000F43" stop-opacity="0.4"/>
<stop offset="0.485" stop-color="#001962" stop-opacity="0.173"/>
<stop offset="1" stop-color="#002079" stop-opacity="0"/>
</linearGradient>
<radialGradient id="paint3_radial" cx="0" cy="0" r="1" gradientUnits="userSpaceOnUse" gradientTransform="translate(37.4857 23.2483) rotate(5.58355) scale(12.3435 11.9666)">
<stop offset="0.003" stop-color="#FFEA00"/>
<stop offset="0.497" stop-color="#FF272D"/>
<stop offset="1" stop-color="#C42482"/>
</radialGradient>
<radialGradient id="paint4_radial" cx="0" cy="0" r="1" gradientUnits="userSpaceOnUse" gradientTransform="translate(37.5629 11.7265) rotate(5.58355) scale(20.6126 19.9832)">
<stop offset="0.003" stop-color="#FFE900"/>
<stop offset="0.157" stop-color="#FFAF0E"/>
<stop offset="0.316" stop-color="#FF7A1B"/>
<stop offset="0.472" stop-color="#FF4E26"/>
<stop offset="0.621" stop-color="#FF2C2E"/>
<stop offset="0.762" stop-color="#FF1434"/>
<stop offset="0.892" stop-color="#FF0538"/>
<stop offset="1" stop-color="#FF0039"/>
</radialGradient>
<radialGradient id="paint5_radial" cx="0" cy="0" r="1" gradientUnits="userSpaceOnUse" gradientTransform="translate(38.546 30.435) rotate(5.58355) scale(18.9143 18.3368)">
<stop offset="0.003" stop-color="#FF272D"/>
<stop offset="0.497" stop-color="#C42482"/>
<stop offset="0.986" stop-color="#620700"/>
</radialGradient>
<radialGradient id="paint6_radial" cx="0" cy="0" r="1" gradientUnits="userSpaceOnUse" gradientTransform="translate(27.0062 14.4161) scale(29.5359 28.6163)">
<stop offset="0.156" stop-color="#FFEA00"/>
<stop offset="0.231" stop-color="#FFDE00"/>
<stop offset="0.365" stop-color="#FFBF00"/>
<stop offset="0.541" stop-color="#FF8E00"/>
<stop offset="0.763" stop-color="#FF272D"/>
<stop offset="0.796" stop-color="#F92433"/>
<stop offset="0.841" stop-color="#E91C45"/>
<stop offset="0.893" stop-color="#CF0E62"/>
<stop offset="0.935" stop-color="#B5007F"/>
</radialGradient>
<radialGradient id="paint7_radial" cx="0" cy="0" r="1" gradientUnits="userSpaceOnUse" gradientTransform="translate(24.784 0.0471578) scale(34.8766 33.7908)">
<stop offset="0.279" stop-color="#FFEA00"/>
<stop offset="0.402" stop-color="#FFDD00"/>
<stop offset="0.63" stop-color="#FFBA00"/>
<stop offset="0.856" stop-color="#FF9100"/>
<stop offset="0.933" stop-color="#FF6711"/>
<stop offset="0.994" stop-color="#FF4A1D"/>
</radialGradient>
<linearGradient id="paint8_linear" x1="6.76299" y1="12.9831" x2="20.1696" y2="10.9056" gradientUnits="userSpaceOnUse">
<stop stop-color="#C42482" stop-opacity="0.5"/>
<stop offset="0.474" stop-color="#FF272D" stop-opacity="0.5"/>
<stop offset="0.486" stop-color="#FF2C2C" stop-opacity="0.513"/>
<stop offset="0.675" stop-color="#FF7A1A" stop-opacity="0.72"/>
<stop offset="0.829" stop-color="#FFB20D" stop-opacity="0.871"/>
<stop offset="0.942" stop-color="#FFD605" stop-opacity="0.964"/>
<stop offset="1" stop-color="#FFE302"/>
</linearGradient>
<linearGradient id="paint9_linear" x1="5.42389" y1="9.50747" x2="3.98854" y2="4.19356" gradientUnits="userSpaceOnUse">
<stop stop-color="#891551" stop-opacity="0.6"/>
<stop offset="1" stop-color="#C42482" stop-opacity="0"/>
</linearGradient>
<linearGradient id="paint10_linear" x1="8.32562" y1="17.1573" x2="11.3283" y2="21.4825" gradientUnits="userSpaceOnUse">
<stop offset="0.005" stop-color="#891551" stop-opacity="0.5"/>
<stop offset="0.484" stop-color="#FF272D" stop-opacity="0.5"/>
<stop offset="1" stop-color="#FF272D" stop-opacity="0"/>
</linearGradient>
<linearGradient id="paint11_linear" x1="14.3146" y1="24.572" x2="14.5822" y2="21.8483" gradientUnits="userSpaceOnUse">
<stop stop-color="#C42482"/>
<stop offset="0.083" stop-color="#C42482" stop-opacity="0.81"/>
<stop offset="0.206" stop-color="#C42482" stop-opacity="0.565"/>
<stop offset="0.328" stop-color="#C42482" stop-opacity="0.362"/>
<stop offset="0.447" stop-color="#C42482" stop-opacity="0.204"/>
<stop offset="0.562" stop-color="#C42482" stop-opacity="0.091"/>
<stop offset="0.673" stop-color="#C42482" stop-opacity="0.023"/>
<stop offset="0.773" stop-color="#C42482" stop-opacity="0"/>
</linearGradient>
<linearGradient id="paint12_linear" x1="23.4319" y1="1.32144" x2="34.3782" y2="26.5854" gradientUnits="userSpaceOnUse">
<stop stop-color="#FFF14F"/>
<stop offset="0.268" stop-color="#FFEE4C"/>
<stop offset="0.452" stop-color="#FFE643"/>
<stop offset="0.612" stop-color="#FFD834"/>
<stop offset="0.757" stop-color="#FFC41E"/>
<stop offset="0.892" stop-color="#FFAB02"/>
<stop offset="0.902" stop-color="#FFA900"/>
<stop offset="0.949" stop-color="#FFA000"/>
<stop offset="1" stop-color="#FF9100"/>
</linearGradient>
<linearGradient id="paint13_linear" x1="25.7111" y1="15.7029" x2="20.5403" y2="30.0324" gradientUnits="userSpaceOnUse">
<stop stop-color="#FF8E00"/>
<stop offset="0.04" stop-color="#FF8E00" stop-opacity="0.858"/>
<stop offset="0.084" stop-color="#FF8E00" stop-opacity="0.729"/>
<stop offset="0.13" stop-color="#FF8E00" stop-opacity="0.628"/>
<stop offset="0.178" stop-color="#FF8E00" stop-opacity="0.557"/>
<stop offset="0.227" stop-color="#FF8E00" stop-opacity="0.514"/>
<stop offset="0.282" stop-color="#FF8E00" stop-opacity="0.5"/>
<stop offset="0.389" stop-color="#FF8E00" stop-opacity="0.478"/>
<stop offset="0.524" stop-color="#FF8E00" stop-opacity="0.416"/>
<stop offset="0.676" stop-color="#FF8E00" stop-opacity="0.314"/>
<stop offset="0.838" stop-color="#FF8E00" stop-opacity="0.172"/>
<stop offset="1" stop-color="#FF8E00" stop-opacity="0"/>
</linearGradient>
</defs>
</svg>
