<svg width="36" height="36" viewBox="0 0 36 36" fill="none" xmlns="http://www.w3.org/2000/svg">
<path d="M12.8469 20.961C12.8469 22.2002 13.3608 23.2438 13.9389 24.3526C14.5812 25.5266 15.4805 26.4397 16.6367 27.1572C17.7929 27.8747 19.0134 28.2008 20.4266 28.2008C21.7755 28.2008 23.0602 27.8747 24.2164 27.1572C25.3726 26.4397 26.2077 25.3962 26.9142 24.2222H35.907C34.7508 27.5486 32.7595 30.4183 29.869 32.5055C26.9784 34.5926 23.7667 35.7014 20.2338 35.7014C17.6001 35.7014 15.0307 35.1144 12.7183 33.9403C7.45105 36.5493 3.66116 36.6797 1.34877 34.3316C0.385374 33.549 0 32.2445 0 30.4835C0 28.7226 0.321157 26.7006 1.02776 24.5483C1.73436 22.3307 2.82634 19.9827 4.4322 17.3086C5.65268 15.2214 6.55194 13.5909 10.0206 10.1993C11.3053 8.8948 11.8834 8.2426 12.2045 7.91643C9.12126 9.41658 5.13873 12.2211 1.92701 15.0909C3.85403 10.2645 6.55193 7.78595 9.82787 5.69888C13.3608 3.54653 16.2514 2.11159 20.1054 2.11159C20.4908 2.11159 20.8762 2.11159 21.3259 2.17679C24.1522 0.872331 26.7216 0.220136 29.0341 0.0244483C31.3465 -0.105962 32.9524 0.285341 33.9159 1.19843C35.843 3.15509 35.9715 6.2858 34.4298 10.5253C35.9072 13.1342 35.9715 16.0692 35.9715 19.0695C35.9715 19.7869 36.0357 20.4391 35.9715 21.0261H27.6209H12.8469V20.961Z" fill="#00C8F6"/>
<path d="M10.2776 32.0487C6.93734 29.9616 5.78115 28.2658 4.43224 24.5481C2.18399 28.9833 1.54168 31.0051 3.21175 32.701C4.68917 34.2011 6.42354 33.8097 10.2776 32.0487Z" fill="white"/>
<path d="M26.9787 16.3954C26.8503 14.5691 26.2079 12.9386 24.859 11.6993C23.5101 10.3948 21.9042 9.87305 20.1056 9.87305C18.2428 9.87305 16.7012 10.3948 15.3523 11.6993C14.0034 13.0038 13.0398 14.5691 12.9114 16.3954H26.9787Z" fill="white"/>
<path d="M26.2078 3.28546C29.291 4.85081 29.8049 5.1117 32.1174 7.91625C32.8882 5.7639 33.0166 5.17691 32.6955 4.52464C32.3743 3.74196 31.7319 3.15497 31.0254 2.7636C29.8691 2.11148 29.0983 2.11148 26.2078 3.28546Z" fill="white"/>
</svg>
