<svg width="36" height="36" viewBox="0 0 36 36" fill="none" xmlns="http://www.w3.org/2000/svg">
<path d="M17.9982 0C8.05692 0 0 8.0597 0 18C0 27.6537 7.60195 35.5307 17.1456 35.9785C17.4322 35.9928 17.7152 36 18.0018 36C22.6124 36 26.8146 34.2663 29.9994 31.4185C27.8893 32.8191 25.421 33.6215 22.7844 33.6215C18.4962 33.6215 14.6594 31.4937 12.0764 28.1409C10.0846 25.7946 8.79491 22.32 8.70893 18.4227C8.70893 18.4119 8.70893 17.5845 8.70893 17.5737C8.79491 13.68 10.0846 10.2054 12.0728 7.85552C14.6558 4.50269 18.4962 2.37851 22.7844 2.37851C25.421 2.37851 27.8893 3.18448 29.9994 4.58507C26.8289 1.74806 22.6518 0.0179104 18.0663 0C18.0448 0 18.0197 0 17.9982 0Z" fill="url(#paint0_linear)"/>
<path d="M12.0728 7.85556C13.7278 5.9069 15.8594 4.73197 18.1916 4.73197C23.4327 4.73197 27.6815 10.6747 27.6815 18C27.6815 25.329 23.4327 31.2681 18.1916 31.2681C15.8594 31.2681 13.7278 30.0932 12.0763 28.1445C14.6593 31.4973 18.4961 33.6251 22.7843 33.6251C25.4209 33.6251 27.8893 32.8191 29.9993 31.4221C33.6821 28.123 35.9999 23.3338 35.9999 18C35.9999 12.6699 33.6821 7.87705 29.9957 4.58153C27.8857 3.18093 25.4209 2.37854 22.7843 2.37854C18.4961 2.37854 14.6593 4.5063 12.0763 7.85914" fill="url(#paint1_linear)"/>
<defs>
<linearGradient id="paint0_linear" x1="14.9978" y1="0.587293" x2="14.9978" y2="35.4756" gradientUnits="userSpaceOnUse">
<stop stop-color="#FF1B2D"/>
<stop offset="0.3" stop-color="#FF1B2D"/>
<stop offset="0.61" stop-color="#FF1B2D"/>
<stop offset="1" stop-color="#A70014"/>
</linearGradient>
<linearGradient id="paint1_linear" x1="24.0375" y1="2.64366" x2="24.0375" y2="33.5007" gradientUnits="userSpaceOnUse">
<stop stop-color="#9C0000"/>
<stop offset="0.7" stop-color="#FF4B4B"/>
<stop offset="1" stop-color="#FF4B4B"/>
</linearGradient>
</defs>
</svg>
